<svg xmlns="http://www.w3.org/2000/svg" viewBox="5.2 42 461.8 148" fill="none" role="img" aria-label="zilex"><title>zilex</title>
<path d="M5.2 190V168L50 115.4H5.2V90H88.8V112L43.8 164.8H89V190H5.2ZM100.141 190V90H131.341V190H100.141ZM115.741 77.2C111.074 77.2 106.941 75.4667 103.341 72C99.874 68.4 98.1406 64.2667 98.1406 59.6C98.1406 54.6667 99.874 50.5333 103.341 47.2C106.941 43.7333 111.074 42 115.741 42C120.541 42 124.674 43.7333 128.141 47.2C131.607 50.5333 133.341 54.6667 133.341 59.6C133.341 64.2667 131.607 68.4 128.141 72C124.674 75.4667 120.541 77.2 115.741 77.2ZM147.614 190V50H178.814V190H147.614ZM241.177 192.4C230.777 192.4 221.577 190.2 213.577 185.8C205.577 181.4 199.31 175.267 194.777 167.4C190.243 159.533 187.977 150.4 187.977 140C187.977 129.6 190.243 120.467 194.777 112.6C199.31 104.733 205.577 98.6 213.577 94.2C221.71 89.8 231.043 87.6 241.577 87.6C251.043 87.6 259.577 89.8667 267.177 94.4C274.777 98.9333 280.777 105.733 285.177 114.8C289.71 123.733 291.977 134.8 291.977 148H220.377C221.043 153.733 223.377 158.333 227.377 161.8C231.51 165.133 236.377 166.8 241.977 166.8C246.91 166.8 251.043 165.733 254.377 163.6C257.71 161.333 260.043 158.533 261.377 155.2L289.177 164.6C286.51 171 282.71 176.267 277.777 180.4C272.977 184.533 267.443 187.6 261.177 189.6C254.91 191.467 248.243 192.4 241.177 192.4ZM221.177 127.2H259.377C258.843 123.333 257.577 120.267 255.577 118C253.577 115.6 251.243 113.867 248.577 112.8C245.91 111.733 243.243 111.2 240.577 111.2C238.043 111.2 235.377 111.733 232.577 112.8C229.777 113.733 227.31 115.4 225.177 117.8C223.177 120.067 221.843 123.2 221.177 127.2ZM286.008 190L323.408 138.2L288.608 90H325.408L340.608 112.8L355.608 90H392.408L357.808 138.4L394.808 190H357.808L340.608 163.6L323.208 190H286.008Z" fill="white"/>
<path d="M438 189.869C454.016 189.869 467 176.915 467 160.935C467 144.954 454.016 132 438 132C421.984 132 409 144.954 409 160.935C409 176.915 421.984 189.869 438 189.869Z" fill="#FF5B1E"/>
</svg>
