<svg xmlns="http://www.w3.org/2000/svg" viewBox="0 0 464 151" fill="none" role="img" aria-label="zilex"><title>zilex</title>
<path d="M283.809 148L321.209 96.2L286.409 48H323.209L338.409 70.8L353.409 48H390.209L355.609 96.4L392.609 148H355.609L338.409 121.6L321.009 148H283.809Z" fill="black"/>
<path d="M238.977 150.4C228.577 150.4 219.377 148.2 211.377 143.8C203.377 139.4 197.111 133.266 192.577 125.4C188.044 117.533 185.777 108.4 185.777 97.9996C185.777 87.5996 188.044 78.4663 192.577 70.5996C197.111 62.7329 203.377 56.5996 211.377 52.1996C219.511 47.7996 228.844 45.5996 239.377 45.5996C248.844 45.5996 257.377 47.8663 264.977 52.3996C272.577 56.9329 278.577 63.7329 282.977 72.7996C287.511 81.7329 289.777 92.7996 289.777 106H218.177C218.844 111.733 221.177 116.333 225.177 119.8C229.311 123.133 234.177 124.8 239.777 124.8C244.711 124.8 248.844 123.733 252.177 121.6C255.511 119.333 257.844 116.533 259.177 113.2L286.977 122.6C284.311 129 280.511 134.266 275.577 138.4C270.777 142.533 265.244 145.6 258.977 147.6C252.711 149.466 246.044 150.4 238.977 150.4ZM218.977 85.1996H257.177C256.644 81.3329 255.377 78.2663 253.377 75.9996C251.377 73.5996 249.044 71.8663 246.377 70.7996C243.711 69.7329 241.044 69.1996 238.377 69.1996C235.844 69.1996 233.177 69.7329 230.377 70.7996C227.577 71.7329 225.111 73.3996 222.977 75.7996C220.977 78.0663 219.644 81.1996 218.977 85.1996Z" fill="black"/>
<path d="M144.414 148V8H175.614V148H144.414Z" fill="black"/>
<path d="M96.9414 148V48H128.141V148H96.9414ZM112.541 35.2C107.875 35.2 103.741 33.4667 100.141 30C96.6747 26.4 94.9414 22.2667 94.9414 17.6C94.9414 12.6667 96.6747 8.53333 100.141 5.19999C103.741 1.73333 107.875 0 112.541 0C117.341 0 121.475 1.73333 124.941 5.19999C128.408 8.53333 130.141 12.6667 130.141 17.6C130.141 22.2667 128.408 26.4 124.941 30C121.475 33.4667 117.341 35.2 112.541 35.2Z" fill="black"/>
<path d="M0 148V126L44.8 73.4H0V48H83.6V70L38.6 122.8H83.8V148H0Z" fill="black"/>
<path d="M434.801 147.869C450.817 147.869 463.801 134.915 463.801 118.935C463.801 102.954 450.817 90 434.801 90C418.785 90 405.801 102.954 405.801 118.935C405.801 134.915 418.785 147.869 434.801 147.869Z" fill="#FF5B1E"/>
</svg>
