<svg xmlns="http://www.w3.org/2000/svg" viewBox="0 0 262.30 87.20" width="262" height="87" fill="none" role="img" aria-label="zilex">
  <title>zilex</title>
  <g transform="translate(3.400 80.000) scale(0.100000 -0.100000)">
    <path fill="#f6f5f3" d="M26 0V110L250 373H26V500H444V390L219 126H445V0Z M531 0V500H687V0ZM609 564Q574 564 547.5 590.5Q521 617 521 652Q521 689 547.5 714.5Q574 740 609 740Q645 740 671.0 714.5Q697 689 697 652Q697 617 671.0 590.5Q645 564 609 564Z M798 0V700H954V0Z M1296 -12Q1218 -12 1158.0 21.5Q1098 55 1064.0 114.0Q1030 173 1030 250Q1030 328 1064.5 387.0Q1099 446 1159.0 479.0Q1219 512 1298 512Q1369 512 1426.0 478.0Q1483 444 1516.5 377.0Q1550 310 1550 210H1192Q1197 167 1227.5 141.5Q1258 116 1300 116Q1337 116 1362.5 132.5Q1388 149 1398 174L1536 127Q1516 80 1479.5 49.0Q1443 18 1396.0 3.0Q1349 -12 1296 -12ZM1196 314H1387Q1383 344 1368.0 361.5Q1353 379 1333.0 386.5Q1313 394 1293 394Q1274 394 1253.0 386.5Q1232 379 1216.5 361.5Q1201 344 1196 314Z M1575 0 1762 259 1588 500H1772L1848 386L1923 500H2107L1934 258L2119 0H1934L1848 132L1761 0Z"/>
  </g>
  <circle cx="240.80" cy="64.50" r="15.50" fill="#ff5b1e"/>
</svg>
